<svg width="64" height="64" viewBox="0 0 64 64" xmlns="http://www.w3.org/2000/svg">
  <!-- Story circle with people -->
  
  <!-- Ground circle -->
  <circle cx="32" cy="40" r="24" fill="#8FBC8F" stroke="#228B22" stroke-width="2" opacity="0.6"/>
  
  <!-- Fire pit in center -->
  <circle cx="32" cy="40" r="6" fill="#8B4513" stroke="#654321" stroke-width="1"/>
  <circle cx="32" cy="40" r="3" fill="#FF4500"/>
  
  <!-- Flame -->
  <path d="M32,37 Q30,32 32,30 Q34,32 32,37" fill="#FFD700" opacity="0.8"/>
  <path d="M32,35 Q31,31 32,29 Q33,31 32,35" fill="#FF6347"/>
  
  <!-- People sitting in circle (simplified) -->
  <circle cx="20" cy="35" r="3" fill="#DEB887"/>
  <circle cx="44" cy="35" r="3" fill="#F4A460"/>
  <circle cx="26" cy="50" r="3" fill="#CD853F"/>
  <circle cx="38" cy="50" r="3" fill="#D2B48C"/>
  
  <!-- Logs for seating -->
  <rect x="18" y="38" width="4" height="8" rx="2" fill="#8B4513"/>
  <rect x="42" y="38" width="4" height="8" rx="2" fill="#8B4513"/>
  <rect x="24" y="53" width="4" height="8" rx="2" fill="#8B4513"/>
  <rect x="36" y="53" width="4" height="8" rx="2" fill="#8B4513"/>
</svg>